/* XPM */
static char * Lens_xpm[] = {
"16 16 19 1",
" 	c #EDEF24",
".	c #99E879",
"+	c #8CE786",
"@	c #CEEC43",
"#	c #24DEEF",
"$	c #C2EB50",
"%	c #5FE3B3",
"&	c #47E1CC",
"*	c #E0EE32",
"=	c #D7ED3A",
"-	c #000000",
";	c #A4E96D",
">	c #7FE693",
",	c #6DE4A5",
"'	c #52E2C1",
")	c #32DFE1",
"!	c #2ADFE9",
"~	c #26DEED",
"{	c #42E1D1",
"       .+       ",
"      @##$      ",
"      %##&      ",
"     *####=     ",
"--------##;     ",
"     >##--,     ",
"     '####--    ",
"     )####! --  ",
"     ~####!   --",
"     )####{  -- ",
"     '####,--   ",
"     >###--     ",
"---------#=     ",
"     *###&      ",
"      %##$      ",
"      @#+       "};
